<?xml version="1.0" encoding="UTF-8"?><svg id="a" xmlns="http://www.w3.org/2000/svg" viewBox="0 0 512 512"><defs><style>.b{fill:#49302a;}.b,.c{stroke-width:0px;}.c{fill:#fff;}</style></defs><rect class="c" width="512" height="512" rx="110" ry="110"/><path class="b" d="M137.1,375.08c-4.34-4.34-7.21-9.3-8.63-14.89-1.42-5.59-1.38-11.13.13-16.64-5.5-5.5-8.26-12.18-8.26-20.02,0-7.84,2.75-14.51,8.26-20.02l35.53-35.53c-3.34-16.35-2.63-32.82,2.13-49.41,4.75-16.6,13.39-31.15,25.9-43.66,20.18-20.18,44.37-30.27,72.56-30.27,28.19,0,52.37,10.09,72.56,30.27,20.18,20.18,30.27,44.37,30.27,72.56,0,28.19-10.09,52.37-30.27,72.56-12.84,12.84-27.48,21.56-43.91,26.15-16.43,4.59-32.82,5.21-49.16,1.88l-35.53,35.53c-5.5,5.5-12.18,8.26-20.02,8.26-7.84,0-14.51-2.75-20.02-8.26-5.5,1.5-11.05,1.54-16.64.13-5.59-1.42-10.55-4.3-14.89-8.63ZM148.61,323.54l40.03,40.03,9.01-9.01-40.03-40.03-9.01,9.01ZM167.62,304.53l40.03,40.03,9.51-9.51-40.03-40.03-9.51,9.51ZM195.14,273l14.51,14.51,27.02-27.02v-44.03h21.02v38.03s38.03,0,38.03,0v21.02h-44.03s-27.02,27.02-27.02,27.02l14.51,14.51c13.34,4.67,27.06,5.63,41.16,2.88,14.09-2.75,26.4-9.38,36.9-19.89,14.68-14.68,22.02-32.19,22.02-52.54,0-20.35-7.34-37.86-22.02-52.54-14.68-14.68-32.19-22.02-52.54-22.02-20.35,0-37.86,7.34-52.54,22.02-10.51,10.51-17.14,22.81-19.89,36.9-2.75,14.09-1.79,27.81,2.88,41.16Z"/><path class="b" d="M336.16,112.71c3.37,0,6.73.23,10.07.66l-3.32-.45c6.69.9,13.23,2.68,19.45,5.29l-2.99-1.26c5.97,2.54,11.58,5.82,16.73,9.76l-2.53-1.95c5.18,4.01,9.83,8.66,13.84,13.84l-1.95-2.53c3.95,5.15,7.23,10.76,9.76,16.73l-1.26-2.99c2.61,6.23,4.39,12.76,5.29,19.45l-.45-3.32c.43,3.34.65,6.7.66,10.07s1.39,6.57,3.66,8.84,5.73,3.8,8.84,3.66,6.59-1.21,8.84-3.66,3.67-5.45,3.66-8.84c-.04-17.71-5.38-35.71-15.67-50.19-2.79-3.93-5.81-7.74-9.15-11.21s-7.08-6.53-10.92-9.48c-6.97-5.33-14.74-9.28-22.96-12.31-9.38-3.46-19.61-5.09-29.59-5.11-3.2,0-6.58,1.4-8.84,3.66s-3.8,5.73-3.66,8.84,1.21,6.59,3.66,8.84,5.45,3.65,8.84,3.66h0Z"/><path class="b" d="M336.16,151.39c1.62,0,3.23.11,4.84.31l-3.32-.45c3.34.45,6.58,1.33,9.69,2.64l-2.99-1.26c2.92,1.26,5.66,2.86,8.18,4.8l-2.53-1.95c2.49,1.94,4.72,4.17,6.66,6.66l-1.95-2.53c1.94,2.52,3.54,5.26,4.8,8.18l-1.26-2.99c1.3,3.11,2.19,6.35,2.64,9.69l-.45-3.32c.2,1.61.3,3.22.31,4.84.01,3.21,1.38,6.56,3.66,8.84s5.73,3.8,8.84,3.66,6.59-1.21,8.84-3.66,3.68-5.46,3.66-8.84c-.05-9.74-2.9-19.87-8.58-27.85-1.65-2.32-3.41-4.61-5.38-6.67s-4.31-3.88-6.64-5.66c-3.86-2.94-8.17-4.98-12.71-6.67-5.14-1.92-10.85-2.75-16.32-2.78-3.2-.01-6.58,1.4-8.84,3.66s-3.8,5.73-3.66,8.84c.3,6.8,5.49,12.47,12.5,12.5h0Z"/></svg>