<?xml version="1.0" encoding="utf-8"?>
<!-- Generator: Adobe Illustrator 28.2.0, SVG Export Plug-In . SVG Version: 6.00 Build 0)  -->
<svg version="1.1" id="图层_1" xmlns="http://www.w3.org/2000/svg" xmlns:xlink="http://www.w3.org/1999/xlink" x="0px" y="0px"
	 viewBox="0 0 256 256" style="enable-background:new 0 0 256 256;" xml:space="preserve">
<style type="text/css">
	.st0{fill:#FFFFFF;}
</style>
<g>
	<path class="st0" d="M195,256H61c-33.69,0-61-27.31-61-61V61C0,27.31,27.31,0,61,0h134c33.69,0,61,27.31,61,61v134
		C256,228.69,228.69,256,195,256z"/>
</g>
<g>
	<path d="M125.19,176.2c-3.94,0-7.36-5.05-10.26-15.14c-1.11-3.85-2.5-10.58-4.17-20.21c-4.36,0.6-10.07,1.67-17.13,3.21
		l-17.06,3.53c-2.14,5.6-5.8,13.79-10.97,24.57c-1.37,2.39-3.23,3.59-5.58,3.59c-1.71,0-3.24-0.62-4.59-1.86
		c-1.35-1.24-2.02-2.78-2.02-4.62c0-2.05,3.23-9.86,9.69-23.42C62.37,144.74,62,143.46,62,142c0-3.46,2.09-5.69,6.29-6.67
		c4.88-9.15,11.03-19.67,18.48-31.56c10.14-16.21,16.44-24.31,18.92-24.31c3.38,0,5.69,2.35,6.93,7.06l4.04,21.55l9.56,44.58
		l3.66,10.14c1.24,3.46,1.86,5.77,1.86,6.93c0,1.84-0.66,3.38-1.99,4.62C128.42,175.58,126.9,176.2,125.19,176.2z M102.55,102.87
		L84.2,132.45c5.17-1.33,13.02-2.93,23.54-4.81L102.55,102.87z"/>
	<path d="M179.59,170.94c-0.13,3.93-2.07,5.9-5.84,5.9c-3.12,0-5.39-1.84-6.8-5.52l-9.81-26.04l-11.42-29.45
		c-0.43-1.11-0.64-2.09-0.64-2.95c0-1.75,0.66-3.25,1.99-4.49c1.33-1.24,2.87-1.86,4.62-1.86c2.57,0,4.4,1.31,5.52,3.91l16.29,44.84
		c3.21-6.84,7.25-16.76,12.12-29.77c1.16-3.42,2.97-8.25,5.45-14.5c1.33-2.74,3.21-4.11,5.65-4.11c1.75,0,3.29,0.62,4.62,1.86
		c1.33,1.24,1.99,2.72,1.99,4.43c0,1.63-3.53,10.78-10.58,27.46L179.59,170.94z"/>
</g>
</svg>
