<?xml version="1.0" encoding="utf-8"?>
<!-- Generator: Adobe Illustrator 25.4.5, SVG Export Plug-In . SVG Version: 6.00 Build 0)  -->
<svg version="1.1" id="图层_1" xmlns="http://www.w3.org/2000/svg" xmlns:xlink="http://www.w3.org/1999/xlink" x="0px" y="0px"
	 viewBox="0 0 128 128" style="enable-background:new 0 0 128 128;" xml:space="preserve">
<style type="text/css">
	.st0{fill:none;stroke:#FF7BAC;stroke-width:9;stroke-miterlimit:10;}
</style>
<path class="st0" d="M7.5,35c11.83,4.92,23.67,9.83,35.5,14.75l0,0C31.17,54.67,19.33,59.58,7.5,64.5"/>
<path class="st0" d="M38,97c3.09,3.96,7.6,8.4,12.68,7.99c5.57-0.44,6.94-6.31,12.68-6.66c6.46-0.4,8.81,6.78,15.22,6.66
	c2.95-0.05,6.85-1.65,11.41-7.99"/>
<path class="st0" d="M120.88,35.38c-11.83,4.92-23.67,9.83-35.5,14.75l0,0c11.83,4.92,23.67,9.83,35.5,14.75"/>
</svg>
