<?xml version="1.0" encoding="UTF-8"?>
<svg id="a" data-name="1" xmlns="http://www.w3.org/2000/svg" viewBox="0 0 512 512">
  <defs>
    <style>
      .b {
        fill: #1168b0;
      }

      .c {
        fill: #fff;
      }

      .d {
        fill: none;
        stroke: #fff;
        stroke-linecap: round;
        stroke-miterlimit: 10;
        stroke-width: 21px;
      }
    </style>
  </defs>
  <rect class="b" width="512" height="512" rx="110" ry="110"/>
  <g>
    <path class="c" d="M136.316,383.263c-4.337-4.337-7.214-9.299-8.632-14.887-1.418-5.588-1.376-11.134.125-16.638-5.504-5.504-8.256-12.176-8.256-20.016,0-7.839,2.752-14.511,8.256-20.016l35.528-35.528c-3.336-16.346-2.627-32.817,2.127-49.414,4.754-16.596,13.386-31.149,25.895-43.659,20.183-20.183,44.368-30.274,72.557-30.274,28.189,0,52.375,10.091,72.557,30.274,20.183,20.183,30.274,44.368,30.274,72.557,0,28.189-10.091,52.374-30.274,72.557-12.843,12.843-27.48,21.559-43.91,26.146-16.43,4.587-32.817,5.212-49.164,1.876l-35.528,35.528c-5.504,5.504-12.176,8.256-20.016,8.256-7.84,0-14.511-2.752-20.016-8.256-5.504,1.501-11.05,1.543-16.638.125-5.588-1.418-10.55-4.295-14.887-8.632ZM147.825,331.723l40.031,40.031,9.007-9.007-40.031-40.031-9.007,9.007ZM166.84,312.708l40.031,40.031,9.507-9.507-40.031-40.031-9.507,9.507ZM194.361,281.183l14.511,14.511,27.021-27.021v-44.035s21.017,0,21.017,0v38.03s38.03,0,38.03,0v21.017s-44.035,0-44.035,0l-27.021,27.021,14.511,14.511c13.344,4.67,27.063,5.629,41.157,2.877,14.094-2.752,26.396-9.382,36.904-19.891,14.678-14.678,22.017-32.192,22.017-52.541,0-20.349-7.339-37.863-22.017-52.541-14.678-14.678-32.192-22.017-52.541-22.017-20.349,0-37.863,7.339-52.541,22.017-10.508,10.508-17.138,22.81-19.891,36.904-2.752,14.094-1.793,27.814,2.877,41.157Z"/>
    <line class="d" x1="383.684" y1="135.895" x2="362.471" y2="157.108"/>
    <line class="d" x1="388.952" y1="208.965" x2="418.952" y2="208.965"/>
    <line class="d" x1="310.614" y1="100.627" x2="310.614" y2="130.627"/>
  </g>
</svg>