<?xml version="1.0" encoding="UTF-8"?><svg id="a" xmlns="http://www.w3.org/2000/svg" viewBox="0 0 512 512"><defs><style>.b{fill:none;stroke:#482f29;stroke-linecap:round;stroke-miterlimit:10;stroke-width:21px;}.c{fill:#49302a;}.c,.d{stroke-width:0px;}.d{fill:#fff;}</style></defs><rect class="d" width="512" height="512" rx="110" ry="110"/><path class="c" d="M136.32,383.26c-4.34-4.34-7.21-9.3-8.63-14.89-1.42-5.59-1.38-11.13.13-16.64-5.5-5.5-8.26-12.18-8.26-20.02,0-7.84,2.75-14.51,8.26-20.02l35.53-35.53c-3.34-16.35-2.63-32.82,2.13-49.41,4.75-16.6,13.39-31.15,25.9-43.66,20.18-20.18,44.37-30.27,72.56-30.27,28.19,0,52.37,10.09,72.56,30.27,20.18,20.18,30.27,44.37,30.27,72.56,0,28.19-10.09,52.37-30.27,72.56-12.84,12.84-27.48,21.56-43.91,26.15-16.43,4.59-32.82,5.21-49.16,1.88l-35.53,35.53c-5.5,5.5-12.18,8.26-20.02,8.26-7.84,0-14.51-2.75-20.02-8.26-5.5,1.5-11.05,1.54-16.64.13-5.59-1.42-10.55-4.3-14.89-8.63ZM147.82,331.72l40.03,40.03,9.01-9.01-40.03-40.03-9.01,9.01ZM166.84,312.71l40.03,40.03,9.51-9.51-40.03-40.03-9.51,9.51ZM194.36,281.18l14.51,14.51,27.02-27.02v-44.03s21.02,0,21.02,0v38.03s38.03,0,38.03,0v21.02s-44.03,0-44.03,0l-27.02,27.02,14.51,14.51c13.34,4.67,27.06,5.63,41.16,2.88,14.09-2.75,26.4-9.38,36.9-19.89,14.68-14.68,22.02-32.19,22.02-52.54,0-20.35-7.34-37.86-22.02-52.54-14.68-14.68-32.19-22.02-52.54-22.02-20.35,0-37.86,7.34-52.54,22.02-10.51,10.51-17.14,22.81-19.89,36.9-2.75,14.09-1.79,27.81,2.88,41.16Z"/><line class="b" x1="383.68" y1="135.89" x2="362.47" y2="157.11"/><line class="b" x1="388.95" y1="208.97" x2="418.95" y2="208.97"/><line class="b" x1="310.61" y1="100.63" x2="310.61" y2="130.63"/></svg>