<?xml version="1.0" encoding="utf-8"?>
<!-- Generator: Adobe Illustrator 27.2.0, SVG Export Plug-In . SVG Version: 6.00 Build 0)  -->
<svg version="1.1" id="图层_1" xmlns="http://www.w3.org/2000/svg" xmlns:xlink="http://www.w3.org/1999/xlink" x="0px" y="0px"
	 viewBox="0 0 256 256" style="enable-background:new 0 0 256 256;" xml:space="preserve">
<style type="text/css">
	.st0{fill:#FFFFFF;}
	.st1{fill:#FFDD67;}
	.st2{opacity:0.8;enable-background:new    ;}
	.st3{fill:#FF717F;}
	.st4{fill:#664E27;}
	.st5{fill:#CCCFD4;}
	.st6{fill:#65B1EF;}
</style>
<g>
	<path class="st0" d="M195,256H61c-33.69,0-61-27.31-61-61V61C0,27.31,27.31,0,61,0h134c33.69,0,61,27.31,61,61v134
		C256,228.69,228.69,256,195,256z"/>
</g>
<path d="M112.5,84h-50C55.6,84,50,78.4,50,71.5v0C50,64.6,55.6,59,62.5,59h50c6.9,0,12.5,5.6,12.5,12.5v0
	C125,78.4,119.4,84,112.5,84z"/>
<g>
	<g>
		<g>
			<ellipse class="st1" cx="184.99" cy="69.81" rx="30.63" ry="29.73"/>
			<g class="st2">
				
					<ellipse transform="matrix(0.2377 -0.9713 0.9713 0.2377 96.9027 245.1323)" class="st3" cx="204.63" cy="60.83" rx="6.45" ry="9.17"/>
			</g>
			<g class="st2">
				
					<ellipse transform="matrix(0.843 -0.5379 0.5379 0.843 -10.8598 98.5656)" class="st3" cx="163.41" cy="67.89" rx="9.1" ry="6.5"/>
			</g>
			<path class="st4" d="M179.24,57.23c-2.68-4.51-5.84-6.46-8.57-6c-2.72,0.47-5.01,3.34-5.94,8.48c-0.09,0.52,1,1.23,1.38,0.68
				c1.43-2.09,3.39-3.16,5.57-3.54c2.19-0.37,4.41-0.02,6.49,1.47C178.74,58.72,179.51,57.68,179.24,57.23z"/>
			<path class="st4" d="M200.5,53.59c-2.69-4.51-5.84-6.46-8.57-6c-2.72,0.47-5.01,3.34-5.93,8.48c-0.09,0.52,1,1.23,1.38,0.68
				c1.43-2.09,3.39-3.16,5.58-3.54c2.19-0.37,4.41-0.02,6.49,1.47C199.99,55.08,200.77,54.05,200.5,53.59z"/>
			<path class="st4" d="M196.95,66.11c-6.91,6.68-15.66,8.15-24.46,4.19c-1.06-0.48-1.71,0.77-0.88,1.68
				c3.08,3.41,8.52,5.98,14.69,4.93c6.17-1.06,10.38-5.28,12.07-9.51C198.82,66.27,197.77,65.31,196.95,66.11z"/>
			<path class="st0" d="M179.71,87.68c0,0,2-0.61,1.23-3.18c-0.8-2.66-7.55,0-10.91-1.24c0,0,2.77-0.84,1.81-3.07
				c-0.87-2.02-8.37-2.71-15.63,2.71c-7.36,5.48-2.57,18.21,6.5,19.78c6.33,1.09,15.97,0.91,17.19-1.73
				c0.97-2.11-2.08-2.92-2.08-2.92s3.88-0.02,3.88-2.85c0-1.65-1.46-1.67-1.46-1.67s3.19-0.46,3.19-3.33
				C183.42,87.85,179.71,87.68,179.71,87.68z"/>
			<path class="st5" d="M178.21,93.15c-2.07,0.24-7.67,0.6-7.67,0.6s3.86,0.7,7.84,0.16c3.56-0.49,3.4,3.01-1.67,3.66
				c-2.41,0.31-6.26,0.37-6.26,0.37s3.45,0.58,5.34,0.34c4.82-0.61,4.32,2.89-0.27,3.51c-7.98,1.08-14.48-0.04-17.58-2.28
				c-4.45-3.23-7.14-13.77,1.61-17.76c3.98-1.82,10.43-3.39,11.39-1.25c1.37,3.06-4.58,3.45-4.58,3.45s4.76,0.67,11.74-0.13
				c1.9-0.21,3.27,2.04,1.01,3.34c-1.97,1.14-8.6,1.54-8.6,1.54s3.57,0.11,8.64-0.3C183.22,88.07,183.59,92.54,178.21,93.15z
				 M181.02,87.71c2.45-1.57,0.37-5.42-2.58-4.94c-2.51,0.41-6.88,0.4-6.88,0.4c0.01-0.01,1.4-0.55,1.05-2.33
				c-0.37-1.86-2.92-4.48-13.48-0.3c-3.9,1.55-6.49,4.78-6.9,8.71c-0.44,4.27,1.58,9.19,4.68,11.44c3.55,2.57,11.67,3.99,19.62,2.5
				c5.2-0.97,4.67-4.24,2.51-4.79c3.56-0.66,3.88-3.59,2.21-4.48C185.35,92.71,184.22,87.88,181.02,87.71z"/>
			<path class="st0" d="M190.28,87.68c0,0-2-0.61-1.23-3.18c0.8-2.66,7.55,0,10.91-1.24c0,0-2.77-0.84-1.81-3.07
				c0.87-2.02,8.37-2.71,15.63,2.71c7.36,5.48,2.57,18.21-6.5,19.78c-6.33,1.09-15.97,0.91-17.19-1.73
				c-0.97-2.11,2.08-2.92,2.08-2.92s-3.88-0.02-3.88-2.85c0-1.65,1.46-1.67,1.46-1.67s-3.19-0.46-3.19-3.33
				C186.56,87.85,190.28,87.68,190.28,87.68z"/>
			<path class="st5" d="M190.84,88.4c5.07,0.41,8.64,0.3,8.64,0.3s-6.63-0.41-8.6-1.54c-2.26-1.3-0.89-3.55,1.01-3.34
				c6.97,0.8,11.73,0.13,11.73,0.13s-5.94-0.39-4.58-3.45c0.95-2.13,7.4-0.56,11.39,1.25c8.75,3.99,6.06,14.53,1.61,17.76
				c-3.1,2.24-9.6,3.36-17.58,2.28c-4.59-0.62-5.09-4.13-0.27-3.51c1.88,0.24,5.33-0.34,5.33-0.34s-3.85-0.06-6.26-0.37
				c-5.07-0.65-5.22-4.15-1.67-3.66c3.98,0.54,7.84-0.16,7.84-0.16s-5.59-0.36-7.67-0.6C186.4,92.54,186.76,88.07,190.84,88.4z
				 M188.72,93.92c-1.67,0.89-1.35,3.82,2.21,4.48c-2.16,0.55-2.69,3.82,2.51,4.79c7.95,1.48,16.07,0.07,19.62-2.5
				c3.11-2.25,5.12-7.17,4.68-11.44c-0.4-3.92-2.99-7.16-6.9-8.71c-10.56-4.18-13.11-1.55-13.48,0.3c-0.35,1.78,1.04,2.32,1.05,2.33
				c0,0-4.36,0.01-6.88-0.4c-2.95-0.48-5.03,3.38-2.58,4.94C185.76,87.88,184.64,92.71,188.72,93.92z"/>
		</g>
	</g>
</g>
<g>
	<g>
		<g>
			<ellipse class="st1" cx="70.65" cy="182.34" rx="32.81" ry="31.86"/>
			<path class="st4" d="M63.57,176.88c-2.03-5.43-5.1-8.14-8.16-8.14c-3.06,0-6.13,2.72-8.16,8.14c-0.2,0.55,0.85,1.53,1.37,1
				c1.97-2.02,4.33-2.82,6.79-2.82c2.46,0,4.82,0.8,6.79,2.82C62.72,178.41,63.77,177.43,63.57,176.88z"/>
			<path class="st4" d="M87.49,176.88c-2.03-5.43-5.1-8.14-8.16-8.14c-3.06,0-6.13,2.72-8.16,8.14c-0.2,0.55,0.85,1.53,1.37,1
				c1.97-2.02,4.33-2.82,6.79-2.82s4.82,0.8,6.79,2.82C86.64,178.41,87.69,177.43,87.49,176.88z"/>
			<path class="st4" d="M85.96,188.77c0-0.85-0.52-1.92-1.99-2.19c-3.79-0.7-9.39-1.43-16.6-1.43h0c-7.21,0-12.81,0.72-16.6,1.43
				c-1.48,0.28-1.99,1.34-1.99,2.19c0,7.72,6.14,15.5,18.59,15.5C79.82,204.26,85.96,196.49,85.96,188.77z"/>
			<path class="st0" d="M81.25,189.02c-2.4-0.39-7.48-1.08-13.88-1.08c-6.4,0-11.48,0.68-13.88,1.08c-1.42,0.23-1.5,0.79-1.4,1.58
				c0.06,0.47,0.15,1.04,0.29,1.65c0.16,0.68,0.29,0.99,1.38,0.87c2.1-0.24,25.12-0.24,27.22,0c1.1,0.13,1.23-0.19,1.38-0.87
				c0.14-0.61,0.23-1.18,0.29-1.65C82.75,189.8,82.66,189.25,81.25,189.02z"/>
			<path class="st6" d="M101.27,180.42c0,7.62-10.66,7.62-10.66,0c0-5.56,5.33-10.99,5.33-10.99S101.27,174.86,101.27,180.42z"/>
		</g>
	</g>
</g>
<path d="M199.5,197h-50c-6.9,0-12.5-5.6-12.5-12.5v0c0-6.9,5.6-12.5,12.5-12.5h50c6.9,0,12.5,5.6,12.5,12.5v0
	C212,191.4,206.4,197,199.5,197z"/>
<path d="M156.76,140.77h-50c-6.9,0-12.5-5.6-12.5-12.5v0c0-6.9,5.6-12.5,12.5-12.5h50c6.9,0,12.5,5.6,12.5,12.5v0
	C169.26,135.17,163.67,140.77,156.76,140.77z"/>
</svg>
