<?xml version="1.0" encoding="UTF-8"?>
<svg id="_图层_1" data-name="图层 1" xmlns="http://www.w3.org/2000/svg" viewBox="0 0 256 256">
  <defs>
    <style>
      .cls-1, .cls-2 {
        stroke-width: 0px;
      }

      .cls-2 {
        fill: #fff;
      }
    </style>
  </defs>
  <rect class="cls-2" x="0" width="256" height="256" rx="61" ry="61"/>
  <path class="cls-1" d="m67.97,186.17c16.16-22.42,33.46-44.6,51.19-65.8,8.82-10.59,15.84-23.04,27.16-31.33,11.45-8.76,24.31-16.34,38.64-19.85,0,0,2.09,2.09,2.09,2.09-.88,3.99-2.19,7.56-3.59,11.04-7.02,16.23-16.9,31.39-31,42.12-5.54,4.21-11.32,8.18-16.61,12.64-9.98,8.38-22.07,18.14-32.38,26.12-11.03,8.47-22.02,16.97-33.42,25.07,0,0-2.09-2.09-2.09-2.09h0Z"/>
  <path class="cls-1" d="m55.38,169.2c.72-9.81,1.88-19.5,3.01-29.2.6-4.84,1.22-9.68,1.9-14.5.7-4.81,1.46-9.61,2.23-14.41.8-4.79,1.08-9.71,1.62-14.57.28-2.43.69-4.82,1.29-7.16.6-2.34,1.4-4.63,2.35-6.87,1.92-4.49,4.21-8.88,7.04-13.12,2.87-4.23,6.07-8.38,10.56-12.17l2.25.6c1.99,5.54,2.69,10.72,3.06,15.83.34,5.09.13,10.04-.46,14.88-.3,2.42-.75,4.8-1.4,7.13-.65,2.33-1.49,4.6-2.46,6.84-1.97,4.47-4.19,8.88-5.88,13.43-1.72,4.54-3.47,9.07-5.27,13.59-1.82,4.51-3.7,9.01-5.6,13.5-3.88,8.96-7.72,17.94-11.99,26.8l-2.25-.6Z"/>
  <path class="cls-1" d="m86.2,198.38c8.86-4.28,17.83-8.12,26.8-11.99,4.49-1.9,8.99-3.78,13.5-5.6,4.52-1.8,9.05-3.54,13.59-5.27,4.55-1.7,8.95-3.92,13.43-5.88,2.24-.97,4.52-1.81,6.84-2.46,2.33-.65,4.71-1.1,7.13-1.4,4.84-.58,9.79-.79,14.88-.46,5.1.37,10.29,1.07,15.83,3.06l.6,2.25c-3.8,4.49-7.94,7.69-12.17,10.56-4.24,2.84-8.63,5.13-13.12,7.04-2.25.95-4.53,1.75-6.87,2.35-2.34.6-4.73,1.01-7.16,1.29-4.86.53-9.79.81-14.57,1.62-4.79.78-9.59,1.53-14.41,2.23-4.82.68-9.66,1.3-14.5,1.9-9.7,1.12-19.39,2.28-29.2,3.01l-.6-2.25Z"/>
</svg>